<svg xmlns="http://www.w3.org/2000/svg" viewBox="0 0 512 512"><defs><style>.cls-1{fill:#fff;}.cls-2{fill:#250b5a;}.cls-3{isolation:isolate;}.cls-4{fill:none;stroke:#250b5a;stroke-linecap:round;stroke-linejoin:round;stroke-width:16px;}</style></defs><g id="Layer_2"><g id="Layer_1-2"><g id="Normal"><rect class="cls-1" width="512" height="512"/><path class="cls-2" d="M254.72,59.86,425,158.17l-.55,195.66L255.28,452.14,85,353.83l.56-195.67,169.16-98.3m0-16a16,16,0,0,0-8,2.16L77.52,144.33a16,16,0,0,0-8,13.79L69,353.78a16,16,0,0,0,8,13.9L247.28,466a16,16,0,0,0,16,0l169.17-98.3a16,16,0,0,0,8-13.79L441,158.21a16,16,0,0,0-8-13.9L262.72,46a16,16,0,0,0-8-2.14Z"/><g class="cls-3"><polygon class="cls-4" points="369.32 190.79 256.56 256.32 143.05 190.78 255.81 125.25 369.32 190.79"/><polygon class="cls-4" points="369.32 190.79 368.95 321.21 256.19 386.74 256.56 256.32 369.32 190.79"/><polygon class="cls-4" points="256.56 256.32 256.19 386.74 142.68 321.21 143.05 190.78 256.56 256.32"/></g></g></g></g></svg>